<?xml version="1.0" encoding="utf-8"?>
<!-- Generator: Adobe Illustrator 27.7.0, SVG Export Plug-In . SVG Version: 6.00 Build 0)  -->
<svg version="1.1" id="Layer_1" xmlns="http://www.w3.org/2000/svg" xmlns:xlink="http://www.w3.org/1999/xlink" x="0px" y="0px"
	 viewBox="0 0 1024 1024" style="enable-background:new 0 0 1024 1024;" xml:space="preserve">
<style type="text/css">
	.st0{fill:#FFFFFF;}
	.st1{fill:#39C2D5;}
	.st2{fill:url(#SVGID_1_);}
	.st3{fill:none;stroke:#000000;stroke-width:17;stroke-linecap:round;stroke-linejoin:round;stroke-miterlimit:10;}
</style>
<g>
	<g id="XMLID_00000132079764758705948430000012857685154314153618_">
		<g>
			<path d="M892.3,699.2l0.2,0.1c-49.2,163.5-201,282.6-380.5,282.6c-179.5,0-331.2-119.1-380.5-282.5l0.4-0.1
				c19,50.4,67.8,86.3,124.8,86.3c73.7,0,133.4-59.7,133.4-133.4v-58h73v200.7c0,13.7,5.5,26,14.5,35c9,9,21.3,14.5,35,14.5
				c27.3,0,49.5-22.2,49.5-49.5V594.2h72v58c0,73.7,59.7,133.4,133.4,133.4C824.6,785.5,873.3,749.7,892.3,699.2z"/>
			<path class="st0" d="M655.2,422.8l26.4,24.6c20.1,18.8,31.5,45.1,31.5,72.6v19.2h-76h-39.8v-63.6V368.7L655.2,422.8z"/>
			<polygon class="st0" points="637.1,539.4 650.1,594.2 634.1,594.2 562.1,594.2 544.5,594.2 558.5,539.4 			"/>
			<polygon class="st0" points="597.3,475.6 597.3,539.2 466.2,539.2 426.7,539.2 426.7,475.6 512,475.6 			"/>
			<path class="st0" d="M512,475.6h-85.3V368.7v-172v-33.8c0-7.8,1.8-15.4,5.2-22.4l25.3-51.2h109.5l25.3,51.2
				c3.4,7,5.2,14.6,5.2,22.4v33.8v172v106.9H512z"/>
			<path class="st1" d="M555.2,65.8l11.6,23.4H457.3l11.6-23.4C489.5,35.2,534.5,35.2,555.2,65.8z"/>
			<polygon class="st0" points="466.2,539.4 479.2,594.2 463.1,594.2 390.1,594.2 373.6,594.2 387.6,539.4 			"/>
			<linearGradient id="SVGID_1_" gradientUnits="userSpaceOnUse" x1="511.9977" y1="186.6525" x2="511.9977" y2="839.8571">
				<stop  offset="0" style="stop-color:#65C6BE"/>
				<stop  offset="0.7346" style="stop-color:#59C7D9"/>
			</linearGradient>
			<path class="st2" d="M598.6,196.7h-1.3v172l57.9,54.1l26.4,24.6c20.1,18.8,31.5,45.1,31.5,72.6v19.1h-76h-39.8H466.2h-39.5H310.9
				V520c0-27.5,11.4-53.8,31.5-72.6l26.4-24.6l57.9-54.1v-172l-7.2,1.3c-174.9,41.7-304.9,198.9-304.9,386.5
				c0,39.9,5.9,78.5,16.8,114.8l0.4-0.1c19,50.4,67.8,86.3,124.8,86.3c73.7,0,133.4-59.7,133.4-133.4v-58h-16.5l14-54.8h78.6
				l13,54.8h-16.1v200.7c0,13.7,5.5,26.1,14.5,35c9,9,21.3,14.5,35,14.5c27.3,0,49.5-22.2,49.5-49.5V594.2h-17.7l14-54.8h78.6
				l13,54.8h-16v58c0,73.7,59.7,133.4,133.4,133.4c57.1,0,105.8-35.9,124.8-86.3l0.2,0.1c10.9-36.3,16.8-74.9,16.8-114.8
				C909.4,394.8,776.4,236.2,598.6,196.7z"/>
			<path class="st0" d="M368.8,422.8l57.9-54.1v106.9v63.6H310.9V520c0-27.5,11.4-53.8,31.5-72.6L368.8,422.8z"/>
		</g>
		<g>
			<path class="st3" d="M598.6,196.7c177.8,39.5,310.7,198.2,310.7,387.9c0,39.9-5.9,78.4-16.8,114.8
				c-49.2,163.5-201,282.6-380.5,282.6c-179.5,0-331.2-119.1-380.5-282.5c-11-36.3-16.8-74.9-16.8-114.8
				c0-187.6,130-344.9,304.9-386.5l7.2-1.3"/>
			<path class="st3" d="M426.7,539.2H310.9V520c0-27.5,11.4-53.8,31.5-72.6l26.4-24.6l57.9-54.1"/>
			<path class="st3" d="M597.3,368.7v-172v-33.8c0-7.8-1.8-15.4-5.2-22.4l-25.3-51.2l-11.6-23.4c-20.7-30.5-65.7-30.5-86.3,0
				l-11.6,23.4l-25.3,51.2c-3.4,7-5.2,14.6-5.2,22.4v33.8v172v106.9v63.6h39.5h131.1"/>
			<polyline class="st3" points="426.7,475.6 512,475.6 597.3,475.6 			"/>
			<line class="st3" x1="512" y1="266.8" x2="512" y2="475.6"/>
			<line class="st3" x1="368.8" y1="422.8" x2="368.8" y2="504.8"/>
			<path class="st3" d="M597.3,539.2h39.8h76V520c0-27.5-11.4-53.8-31.5-72.6l-26.4-24.6l-57.9-54.1v106.9V539.2z"/>
			<line class="st3" x1="655.2" y1="422.8" x2="655.2" y2="504.8"/>
			<path class="st3" d="M464.9,187.2c0-26,21.1-47.1,47.1-47.1s47.1,21.1,47.1,47.1"/>
			<polygon class="st3" points="466.2,539.4 479.2,594.2 463.1,594.2 390.1,594.2 373.6,594.2 387.6,539.4 			"/>
			<polygon class="st3" points="637.1,539.4 650.1,594.2 634.1,594.2 562.1,594.2 544.5,594.2 558.5,539.4 			"/>
			<path class="st3" d="M131.9,699.2c19,50.4,67.8,86.3,124.8,86.3c73.7,0,133.4-59.7,133.4-133.4v-58"/>
			<path class="st3" d="M892.3,699.2c-19,50.4-67.7,86.3-124.8,86.3c-73.7,0-133.4-59.7-133.4-133.4v-58"/>
			<path class="st3" d="M562.1,594.2v200.7c0,27.3-22.2,49.5-49.5,49.5c-13.7,0-26.1-5.5-35-14.5c-9-9-14.5-21.3-14.5-35V594.2"/>
			<line class="st3" x1="457.3" y1="89.2" x2="566.7" y2="89.2"/>
		</g>
	</g>
</g>
</svg>
